<?xml version="1.0" encoding="UTF-8"?>
<svg width="113px" height="23px" viewBox="0 0 113 23" version="1.1" xmlns="http://www.w3.org/2000/svg" xmlns:xlink="http://www.w3.org/1999/xlink">
    <!-- Generator: Sketch 41.2 (35397) - http://www.bohemiancoding.com/sketch -->
    <title>trainer-logo</title>
    <desc>Created with Sketch.</desc>
    <defs>
        <path d="M16.0302283,5.02206231 C14.3537589,3.75289953 12.264804,3 10,3 C4.4771525,3 0,7.4771525 0,13 C0,18.5228475 4.4771525,23 10,23 C15.5228475,23 20,18.5228475 20,13" id="path-1"></path>
        <mask id="mask-2" maskContentUnits="userSpaceOnUse" maskUnits="objectBoundingBox" x="0" y="0" width="20" height="20" fill="white">
            <use xlink:href="#path-1"></use>
        </mask>
    </defs>
    <g id="Symbols" stroke="none" stroke-width="1" fill="none" fill-rule="evenodd">
        <g id="Header-main-athlete" transform="translate(-17.000000, -13.000000)">
            <g id="Header">
                <g id="trainer-logo" transform="translate(17.000000, 13.000000)">
                    <path d="M31,7.34954008 C31,7.08760272 31.0579968,6.85698742 31.1739921,6.65768725 C31.2899874,6.45838709 31.4584543,6.3587385 31.6793978,6.3587385 L38.6887946,6.3587385 C38.9097381,6.3587385 39.0782049,6.45838709 39.1942003,6.65768725 C39.3101956,6.85698742 39.3681924,7.08760272 39.3681924,7.34954008 C39.3681924,7.62286602 39.3074338,7.85917553 39.1859149,8.05847569 C39.064396,8.25777585 38.8986909,8.35742444 38.6887946,8.35742444 L36.2694756,8.35742444 L36.2694756,18.1458607 C36.2694756,18.3622437 36.1617673,18.5330699 35.9463474,18.6583443 C35.7309275,18.7836187 35.4796081,18.8462549 35.1923815,18.8462549 C34.8941078,18.8462549 34.6400266,18.7836187 34.4301303,18.6583443 C34.220234,18.5330699 34.1152875,18.3622437 34.1152875,18.1458607 L34.1152875,8.35742444 L31.6793978,8.35742444 C31.4695015,8.35742444 31.3037964,8.26062296 31.1822775,8.06701708 C31.0607585,7.87341121 31,7.6342546 31,7.34954008 Z M39.3557644,18.1458607 L39.3557644,11.4152431 C39.3557644,11.2102486 39.4524257,11.0451167 39.6457512,10.9198423 C39.8390768,10.7945679 40.0903962,10.7319317 40.3997171,10.7319317 C40.6758964,10.7319317 40.9051219,10.7945679 41.0874002,10.9198423 C41.2696786,11.0451167 41.3608164,11.2102486 41.3608164,11.4152431 L41.3608164,12.1156373 C41.5375712,11.717037 41.8137464,11.3696905 42.1893503,11.0735874 C42.5649542,10.7774843 42.96817,10.629435 43.3990098,10.629435 L43.9127008,10.629435 C44.1115499,10.629435 44.2910638,10.7262364 44.4512479,10.9198423 C44.6114319,11.1134482 44.6915227,11.3355222 44.6915227,11.586071 C44.6915227,11.8480083 44.6114319,12.0757765 44.4512479,12.2693824 C44.2910638,12.4629883 44.1115499,12.5597898 43.9127008,12.5597898 L43.3990098,12.5597898 C42.8908398,12.5597898 42.4461977,12.7932522 42.0650702,13.260184 C41.6839427,13.7271158 41.4933818,14.3363957 41.4933818,15.088042 L41.4933818,18.1458607 C41.4933818,18.3166894 41.3829118,18.4761272 41.1619683,18.6241787 C40.9410248,18.7722303 40.6869436,18.8462549 40.3997171,18.8462549 C40.1014434,18.8462549 39.8528857,18.7750774 39.6540366,18.6327201 C39.4551874,18.4903628 39.3557644,18.328078 39.3557644,18.1458607 Z M45.6567647,16.7279895 C45.6567647,15.8055144 45.9881749,15.1563751 46.6510054,14.7805519 C47.3138358,14.4047287 48.269402,14.21682 49.5177326,14.21682 L50.1971304,14.21682 L50.1971304,13.9947438 C50.1971304,13.5733663 50.0783751,13.20609 49.8408609,12.8929041 C49.6033466,12.5797181 49.2360336,12.4231275 48.7389108,12.4231275 C48.241788,12.4231275 47.8164781,12.5113876 47.4629686,12.6879106 C47.109459,12.8644336 46.9050894,12.9526938 46.8498535,12.9526938 C46.62891,12.9526938 46.4521579,12.8388097 46.3195918,12.6110381 C46.1870257,12.3832665 46.1207437,12.1327215 46.1207437,11.8593955 C46.1207437,11.5291267 46.4052041,11.2415693 46.9741336,10.9967148 C47.543063,10.7518604 48.1423632,10.629435 48.7720521,10.629435 C49.9761941,10.629435 50.8710018,10.9454633 51.456502,11.5775296 C52.0420022,12.2095958 52.3347479,13.0039374 52.3347479,13.9605782 L52.3347479,18.1458607 C52.3347479,18.3394666 52.2353248,18.5045985 52.0364757,18.6412615 C51.8376266,18.7779245 51.5890689,18.8462549 51.2907952,18.8462549 C51.0146158,18.8462549 50.7853904,18.7779245 50.6031121,18.6412615 C50.4208337,18.5045985 50.3296959,18.3394666 50.3296959,18.1458607 L50.3296959,17.6504599 C49.5674409,18.5501578 48.7278682,19 47.8109528,19 C47.1812639,19 46.6648163,18.806397 46.2615944,18.4191853 C45.8583726,18.0319735 45.6567647,17.4682472 45.6567647,16.7279895 Z M47.7943821,16.4375821 C47.7943821,16.7450738 47.8744729,16.9756891 48.034657,17.129435 C48.194841,17.2831808 48.4074959,17.3600526 48.6726281,17.3600526 C49.0261376,17.3600526 49.3685949,17.1892264 49.7000101,16.847569 C50.0314253,16.5059116 50.1971304,16.130094 50.1971304,15.7201051 L50.1971304,15.3613666 L49.9485703,15.3613666 C49.2746927,15.3613666 48.747198,15.4325442 48.3660705,15.5749014 C47.984943,15.7172587 47.7943821,16.0048161 47.7943821,16.4375821 Z M54.3273719,7.84494087 C54.3273719,7.54883777 54.4406038,7.29544564 54.6670708,7.0847569 C54.8935379,6.87406815 55.1724749,6.76872536 55.5038901,6.76872536 C55.8242581,6.76872536 56.0976716,6.87406815 56.3241386,7.0847569 C56.5506057,7.29544564 56.6638375,7.54883777 56.6638375,7.84494087 C56.6638375,8.12965539 56.5506057,8.38020041 56.3241386,8.59658344 C56.0976716,8.81296648 55.8242581,8.92115637 55.5038901,8.92115637 C55.1724749,8.92115637 54.8935379,8.81296648 54.6670708,8.59658344 C54.4406038,8.38020041 54.3273719,8.12965539 54.3273719,7.84494087 Z M54.4433667,18.1458607 L54.4433667,11.4152431 C54.4433667,11.2102486 54.5427898,11.0451167 54.7416389,10.9198423 C54.940488,10.7945679 55.1945692,10.7319317 55.5038901,10.7319317 C55.8132109,10.7319317 56.0700539,10.7945679 56.2744266,10.9198423 C56.4787993,11.0451167 56.5809841,11.2102486 56.5809841,11.4152431 L56.5809841,18.1458607 C56.5809841,18.3166894 56.4732758,18.4761272 56.2578559,18.6241787 C56.042436,18.7722303 55.7911166,18.8462549 55.5038901,18.8462549 C55.2056164,18.8462549 54.9542969,18.7750774 54.7499242,18.6327201 C54.5455515,18.4903628 54.4433667,18.328078 54.4433667,18.1458607 Z M58.7558856,18.1458607 L58.7558856,11.4152431 C58.7558856,11.2102486 58.8525469,11.0451167 59.0458725,10.9198423 C59.239198,10.7945679 59.496041,10.7319317 59.816409,10.7319317 C60.0815412,10.7319317 60.3052431,10.7945679 60.4875215,10.9198423 C60.6697998,11.0451167 60.7609377,11.2102486 60.7609377,11.4152431 L60.7609377,11.9277267 C60.9376924,11.5632921 61.2221529,11.255805 61.6143276,11.0052562 C62.0065022,10.7547075 62.4621913,10.629435 62.9814085,10.629435 C63.7436635,10.629435 64.4092457,10.9710873 64.9781752,11.6544021 C65.5471047,12.337717 65.8315651,13.1519883 65.8315651,14.0972405 L65.8315651,18.1458607 C65.8315651,18.3622437 65.7238568,18.5330699 65.5084369,18.6583443 C65.293017,18.7836187 65.0416976,18.8462549 64.7544711,18.8462549 C64.4782917,18.8462549 64.2324958,18.7836187 64.0170759,18.6583443 C63.801656,18.5330699 63.6939477,18.3622437 63.6939477,18.1458607 L63.6939477,14.0972405 C63.6939477,13.6986401 63.5503366,13.3427523 63.26311,13.0295664 C62.9758835,12.7163804 62.6389498,12.5597898 62.2522987,12.5597898 C61.8877419,12.5597898 61.5701405,12.7021449 61.2994847,12.9868594 C61.0288289,13.2715739 60.8935031,13.6416972 60.8935031,14.0972405 L60.8935031,18.1458607 C60.8935031,18.3166894 60.7857948,18.4761272 60.5703749,18.6241787 C60.354955,18.7722303 60.1036355,18.8462549 59.816409,18.8462549 C59.5181353,18.8462549 59.2668159,18.7750774 59.0624432,18.6327201 C58.8580704,18.4903628 58.7558856,18.328078 58.7558856,18.1458607 Z M67.6419117,15.4980289 L67.6419117,14.0459921 C67.6419117,13.1121285 67.995416,12.3092456 68.7024351,11.6373193 C69.4094542,10.965393 70.2655973,10.629435 71.2708902,10.629435 C72.2098999,10.629435 73.0135698,10.9340749 73.6819238,11.543364 C74.3502778,12.1526531 74.6844498,12.9185236 74.6844498,13.8409987 C74.6844498,14.1826561 74.6430236,14.4645193 74.5601697,14.6865966 C74.4773159,14.9086739 74.3502754,15.0652645 74.1790442,15.1563732 C74.007813,15.2474818 73.8503931,15.3044239 73.7067798,15.3272011 C73.5631666,15.3499782 73.3753674,15.3613666 73.1433768,15.3613666 L69.7795292,15.3613666 L69.7795292,15.6176084 C69.7795292,16.1073174 69.9562813,16.5030646 70.3097908,16.804862 C70.6633004,17.1066594 71.1327983,17.2575558 71.7182985,17.2575558 C72.1380911,17.2575558 72.5523539,17.149366 72.9610993,16.9329829 C73.3698448,16.7165999 73.634973,16.60841 73.7564919,16.60841 C73.9884825,16.60841 74.1818052,16.719447 74.3364656,16.9415243 C74.491126,17.1636016 74.5684551,17.3771343 74.5684551,17.5821288 C74.5684551,17.901009 74.2895181,18.2170374 73.7316358,18.5302234 C73.1737536,18.8434094 72.4805538,19 71.6520158,19 C70.4699682,19 69.5061167,18.6782774 68.7604325,18.0348226 C68.0147482,17.3913678 67.6419117,16.5457783 67.6419117,15.4980289 Z M69.7795292,14.0630749 L72.1988481,14.0630749 C72.3756029,14.0630749 72.4998818,14.0317568 72.5716884,13.9691196 C72.643495,13.9064824 72.6793978,13.784057 72.6793978,13.6018397 C72.6793978,13.2032394 72.5385484,12.8786697 72.2568455,12.6281209 C71.9751426,12.3775721 71.6299236,12.2522996 71.2211781,12.2522996 C70.834527,12.2522996 70.4975933,12.374725 70.2103668,12.6195795 C69.9231403,12.864434 69.7795292,13.1861566 69.7795292,13.5847569 L69.7795292,14.0630749 Z M76.4782257,18.1458607 L76.4782257,11.4152431 C76.4782257,11.2102486 76.574887,11.0451167 76.7682126,10.9198423 C76.9615381,10.7945679 77.2128576,10.7319317 77.5221784,10.7319317 C77.7983578,10.7319317 78.0275832,10.7945679 78.2098616,10.9198423 C78.3921399,11.0451167 78.4832778,11.2102486 78.4832778,11.4152431 L78.4832778,12.1156373 C78.6600325,11.717037 78.9362077,11.3696905 79.3118117,11.0735874 C79.6874156,10.7774843 80.0906314,10.629435 80.5214712,10.629435 L81.0351622,10.629435 C81.2340113,10.629435 81.4135252,10.7262364 81.5737092,10.9198423 C81.7338932,11.1134482 81.813984,11.3355222 81.813984,11.586071 C81.813984,11.8480083 81.7338932,12.0757765 81.5737092,12.2693824 C81.4135252,12.4629883 81.2340113,12.5597898 81.0351622,12.5597898 L80.5214712,12.5597898 C80.0133012,12.5597898 79.5686591,12.7932522 79.1875316,13.260184 C78.8064041,13.7271158 78.6158432,14.3363957 78.6158432,15.088042 L78.6158432,18.1458607 C78.6158432,18.3166894 78.5053731,18.4761272 78.2844296,18.6241787 C78.0634861,18.7722303 77.809405,18.8462549 77.5221784,18.8462549 C77.2239047,18.8462549 76.9753471,18.7750774 76.7764979,18.6327201 C76.5776488,18.4903628 76.4782257,18.328078 76.4782257,18.1458607 Z M83.4089118,18.1458607 L83.4089118,7.04204993 C83.4089118,6.85983264 83.4834791,6.7003949 83.6326159,6.56373193 C83.7817528,6.42706896 83.9778372,6.3587385 84.220875,6.3587385 L87.5515813,6.3587385 C88.6894402,6.3587385 89.6008184,6.66907267 90.2857432,7.28975033 C90.9706679,7.91042798 91.3131252,8.88128993 91.3131252,10.2023653 L91.3131252,10.304862 C91.3131252,11.637326 90.9568592,12.6167292 90.2443165,13.2431012 C89.5317737,13.8694731 88.5900163,14.1826544 87.4190159,14.1826544 L85.5630999,14.1826544 L85.5630999,18.1458607 C85.5630999,18.3622437 85.4553916,18.5330699 85.2399717,18.6583443 C85.0245518,18.7836187 84.7732324,18.8462549 84.4860059,18.8462549 C84.1877322,18.8462549 83.933651,18.7836187 83.7237547,18.6583443 C83.5138584,18.5330699 83.4089118,18.3622437 83.4089118,18.1458607 Z M85.5630999,12.4402102 L87.4190159,12.4402102 C87.9713746,12.4402102 88.3994461,12.2750783 88.7032434,11.9448095 C89.0070407,11.6145406 89.1589371,11.124839 89.1589371,10.4756899 L89.1589371,10.2706965 C89.1589371,9.62154735 89.0070407,9.13184572 88.7032434,8.80157687 C88.3994461,8.47130803 87.9713746,8.30617608 87.4190159,8.30617608 L85.5630999,8.30617608 L85.5630999,12.4402102 Z M93.1400424,18.1458607 L93.1400424,6.68331143 C93.1400424,6.47831698 93.2367038,6.31318503 93.4300293,6.18791064 C93.6233548,6.06263625 93.8801978,6 94.2005658,6 C94.4988395,6 94.7529207,6.06263625 94.962817,6.18791064 C95.1727133,6.31318503 95.2776599,6.47831698 95.2776599,6.68331143 L95.2776599,18.1458607 C95.2776599,18.3166894 95.1699516,18.4761272 94.9545317,18.6241787 C94.7391118,18.7722303 94.4877923,18.8462549 94.2005658,18.8462549 C93.9022921,18.8462549 93.6509727,18.7750774 93.4466,18.6327201 C93.2422273,18.4903628 93.1400424,18.328078 93.1400424,18.1458607 Z M97.1377185,16.7279895 C97.1377185,15.8055144 97.4691287,15.1563751 98.1319592,14.7805519 C98.7947896,14.4047287 99.7503558,14.21682 100.998686,14.21682 L101.678084,14.21682 L101.678084,13.9947438 C101.678084,13.5733663 101.559329,13.20609 101.321815,12.8929041 C101.0843,12.5797181 100.716987,12.4231275 100.219865,12.4231275 C99.7227418,12.4231275 99.297432,12.5113876 98.9439224,12.6879106 C98.5904128,12.8644336 98.3860432,12.9526938 98.3308073,12.9526938 C98.1098638,12.9526938 97.9331117,12.8388097 97.8005456,12.6110381 C97.6679795,12.3832665 97.6016975,12.1327215 97.6016975,11.8593955 C97.6016975,11.5291267 97.8861579,11.2415693 98.4550874,10.9967148 C99.0240169,10.7518604 99.623317,10.629435 100.253006,10.629435 C101.457148,10.629435 102.351956,10.9454633 102.937456,11.5775296 C103.522956,12.2095958 103.815702,13.0039374 103.815702,13.9605782 L103.815702,18.1458607 C103.815702,18.3394666 103.716279,18.5045985 103.51743,18.6412615 C103.31858,18.7779245 103.070023,18.8462549 102.771749,18.8462549 C102.49557,18.8462549 102.266344,18.7779245 102.084066,18.6412615 C101.901788,18.5045985 101.81065,18.3394666 101.81065,18.1458607 L101.81065,17.6504599 C101.048395,18.5501578 100.208822,19 99.2919066,19 C98.6622177,19 98.1457701,18.806397 97.7425482,18.4191853 C97.3393264,18.0319735 97.1377185,17.4682472 97.1377185,16.7279895 Z M99.275336,16.4375821 C99.275336,16.7450738 99.3554268,16.9756891 99.5156108,17.129435 C99.6757948,17.2831808 99.8884497,17.3600526 100.153582,17.3600526 C100.507091,17.3600526 100.849549,17.1892264 101.180964,16.847569 C101.512379,16.5059116 101.678084,16.130094 101.678084,15.7201051 L101.678084,15.3613666 L101.429524,15.3613666 C100.755646,15.3613666 100.228152,15.4325442 99.8470244,15.5749014 C99.4658969,15.7172587 99.275336,16.0048161 99.275336,16.4375821 Z M105.924321,18.1458607 L105.924321,11.4152431 C105.924321,11.2102486 106.020982,11.0451167 106.214307,10.9198423 C106.407633,10.7945679 106.664476,10.7319317 106.984844,10.7319317 C107.249976,10.7319317 107.473678,10.7945679 107.655956,10.9198423 C107.838235,11.0451167 107.929373,11.2102486 107.929373,11.4152431 L107.929373,11.9277267 C108.106127,11.5632921 108.390588,11.255805 108.782762,11.0052562 C109.174937,10.7547075 109.630626,10.629435 110.149843,10.629435 C110.912098,10.629435 111.577681,10.9710873 112.14661,11.6544021 C112.71554,12.337717 113,13.1519883 113,14.0972405 L113,18.1458607 C113,18.3622437 112.892292,18.5330699 112.676872,18.6583443 C112.461452,18.7836187 112.210132,18.8462549 111.922906,18.8462549 C111.646727,18.8462549 111.400931,18.7836187 111.185511,18.6583443 C110.970091,18.5330699 110.862383,18.3622437 110.862383,18.1458607 L110.862383,14.0972405 C110.862383,13.6986401 110.718771,13.3427523 110.431545,13.0295664 C110.144318,12.7163804 109.807385,12.5597898 109.420734,12.5597898 C109.056177,12.5597898 108.738575,12.7021449 108.46792,12.9868594 C108.197264,13.2715739 108.061938,13.6416972 108.061938,14.0972405 L108.061938,18.1458607 C108.061938,18.3166894 107.95423,18.4761272 107.73881,18.6241787 C107.52339,18.7722303 107.27207,18.8462549 106.984844,18.8462549 C106.68657,18.8462549 106.435251,18.7750774 106.230878,18.6327201 C106.026505,18.4903628 105.924321,18.328078 105.924321,18.1458607 Z" id="TrainerPlan" fill="#FFFFFF"></path>
                    <g id="Logo" stroke="#FFFFFF">
                        <use id="Oval-3" mask="url(#mask-2)" stroke-width="4" xlink:href="#path-1"></use>
                        <g id="Group-9" transform="translate(13.071068, 10.071068) rotate(-45.000000) translate(-13.071068, -10.071068) translate(6.571068, 6.571068)" stroke-width="2" stroke-linecap="round">
                            <path d="M1,-2.84217094e-14 L1,6" id="Line"></path>
                            <path d="M13,6 L1,6" id="Line-Copy-2"></path>
                        </g>
                        <path d="M10,3.5 L10,1" id="Line" stroke-width="2" stroke-linecap="square"></path>
                        <path d="M8,1 L12,1" id="Line-Copy" stroke-width="2" stroke-linecap="round"></path>
                    </g>
                </g>
            </g>
        </g>
    </g>
</svg>